<?xml version="1.0" encoding="utf-8"?>
<!-- Generator: Adobe Illustrator 23.0.3, SVG Export Plug-In . SVG Version: 6.00 Build 0)  -->
<svg version="1.1" id="Calque_1" xmlns="http://www.w3.org/2000/svg" xmlns:xlink="http://www.w3.org/1999/xlink" x="0px" y="0px"
	 viewBox="0 0 336 103" style="enable-background:new 0 0 336 103;" xml:space="preserve">
<style type="text/css">
	.st0{fill:#1D1D1B;}
	.st1{fill:url(#SVGID_1_);}
	.st2{fill:url(#SVGID_2_);}
</style>
<g>
	<path class="st0" d="M26,93.9c-6,0-10.8-1.7-14.4-5.1c-4.2-4-6.2-9.4-6.3-16.3V63c0-1,0.8-1.8,1.8-1.8h10c1,0,1.8,0.8,1.8,1.8v9.5
		c0,3,0.6,5,1.9,6.2c1.1,1,2.8,1.5,5.1,1.5c2.4,0,4.1-0.5,5.1-1.5c1.2-1.1,1.9-3.2,1.8-6.2V67c0-3.8-1.6-7.1-4.6-9.9
		c-0.7-0.6-2.4-1.6-5.2-3.2c-3.9-2.1-6.8-3.9-8.6-5.4c-3-2.6-5.3-5.7-6.9-9C6,36,5.2,32.4,5.2,28.5v-2.1c0-6.9,2-12.3,6.2-16.3
		C15,6.7,19.8,5,25.8,4.9c6,0,10.8,1.7,14.4,5.1c4.1,4,6.2,9.4,6.3,16.3v5.8c0,1-0.8,1.8-1.8,1.8h-10c-1,0-1.8-0.8-1.8-1.8v-5.8
		c0-3.1-0.6-5.1-1.9-6.2c-1-1-2.7-1.5-5.1-1.5c-2.3,0-4,0.5-5.1,1.5c-1.2,1.2-1.9,3.2-1.8,6.2v2.1c0,3.8,1.5,7.1,4.6,9.8
		c0.8,0.7,2.4,1.7,4.9,3c4.3,2.3,7.3,4.2,9,5.7c6.1,5.4,9.2,12.1,9.2,20.1v5.5c0,6.9-2,12.3-6.2,16.3C36.7,92.1,31.9,93.8,26,93.9z"
		/>
	<path class="st0" d="M90.3,19.4H80c-1,0-1.8,0.8-1.8,1.8l0.2,69.6c0,1-0.8,1.8-1.8,1.8h-10c-1,0-1.8-0.8-1.8-1.8l-0.2-69.6
		c0-1-0.8-1.8-1.8-1.8H52.5c-1,0-1.8-0.8-1.8-1.8v-10c0-1,0.8-1.8,1.8-1.8l37.8-0.1c1,0,1.8,0.8,1.8,1.8v10
		C92.1,18.6,91.3,19.4,90.3,19.4z"/>
	<path class="st0" d="M137,92.6h-10.2c-0.9,0-1.6-0.6-1.8-1.5l-6.6-32c-0.2-0.8-0.9-1.5-1.8-1.5h-2.9c-1,0-1.8,0.8-1.8,1.8l0.1,31.3
		c0,1-0.8,1.8-1.8,1.8h-10c-1,0-1.8-0.8-1.8-1.8L98.2,7.6c0-1,0.8-1.8,1.8-1.8h18.8c5.9,0,10.7,1.7,14.4,5.2
		c4.1,3.8,6.2,9.2,6.3,16.1v9.3c0,7-2,12.5-6.2,16.3c-0.3,0.3-0.7,0.7-1.1,1c-0.5,0.4-0.8,1.1-0.6,1.8l7.2,35
		C139,91.5,138.2,92.6,137,92.6z M125.8,27c0-2.9-0.6-5-1.9-6.2c-1.1-1-2.8-1.5-5.1-1.5h-5.1c-1,0-1.8,0.8-1.8,1.8l0.1,21.1
		c0,1,0.8,1.8,1.8,1.8h5.1c2.3,0,4-0.5,5.1-1.5c1.2-1.2,1.9-3.2,1.8-6.2V27z"/>
	<path class="st0" d="M235.9,20.9v18.2c0,1,0.8,1.8,1.8,1.8h11.8c1,0,1.8,0.8,1.8,1.8v10c0,1-0.8,1.8-1.8,1.8h-11.8
		c-1,0-1.8,0.8-1.8,1.8l0.1,20.5c0,1,0.8,1.8,1.8,1.8h18.7c1,0,1.8,0.8,1.8,1.8v10c0,1-0.8,1.8-1.8,1.8l-32.4,0.1
		c-1,0-1.8-0.8-1.8-1.8l-0.2-83.3c0-1,0.8-1.8,1.8-1.8l32.4-0.1c1,0,1.8,0.8,1.8,1.8v10c0,1-0.8,1.8-1.8,1.8h-18.7
		C236.7,19.1,235.9,19.9,235.9,20.9z"/>
	<path class="st0" d="M305.5,92.1h-10.2c-0.9,0-1.6-0.6-1.8-1.5l-6.6-32c-0.2-0.8-0.9-1.5-1.8-1.5h-2.9c-1,0-1.8,0.8-1.8,1.8
		l0.1,31.3c0,1-0.8,1.8-1.8,1.8h-10c-1,0-1.8-0.8-1.8-1.8l-0.2-83.3c0-1,0.8-1.8,1.8-1.8h18.8c5.9,0,10.7,1.7,14.4,5.2
		c4.1,3.8,6.2,9.2,6.3,16.1v9.3c0,7-2,12.5-6.2,16.3c-0.3,0.3-0.7,0.7-1.1,1c-0.5,0.4-0.8,1.1-0.6,1.8l7.2,35
		C307.5,91.1,306.7,92.1,305.5,92.1z M294.3,26.6c0-2.9-0.6-5-1.9-6.2c-1.1-1-2.8-1.5-5.1-1.5h-5.1c-1,0-1.8,0.8-1.8,1.8l0.1,21.1
		c0,1,0.8,1.8,1.8,1.8h5.1c2.3,0,4-0.5,5.1-1.5c1.2-1.2,1.9-3.2,1.8-6.2V26.6z"/>
	<path class="st0" d="M212.9,5.5h-10.8c-0.7,0-1.4,0.4-1.7,1.1l-3.7,8.6L165.2,90c-0.5,1.2,0.4,2.5,1.7,2.5h5.4h0.1h4.9
		c0.7,0,1.4-0.4,1.7-1.1l7.5-17.2l2.4-5.5c0.6-1.5,2.8-1.4,3.4,0.1l8.6,22.4c0.3,0.7,0.9,1.2,1.7,1.2h10.8c1.3,0,2.2-1.3,1.7-2.5
		l-16.4-42.5c-0.2-0.4-0.2-0.9,0-1.4l16-38.1C215.1,6.8,214.2,5.5,212.9,5.5z"/>
	
		<linearGradient id="SVGID_1_" gradientUnits="userSpaceOnUse" x1="165.3455" y1="85.504" x2="165.3455" y2="11.1712" gradientTransform="matrix(1 -2.579500e-03 -2.579500e-03 -1 0.1905 104.1692)">
		<stop  offset="0" style="stop-color:#00F4BC"/>
		<stop  offset="1" style="stop-color:#329696"/>
	</linearGradient>
	<path class="st1" d="M148.5,20.1l0.2,70.7c0,2,2.7,2.5,3.5,0.7L182,20.7c0.5-1.2-0.4-2.5-1.7-2.5l-30,0.1
		C149.3,18.3,148.5,19.1,148.5,20.1z"/>
	<path class="st0" d="M166.5,16.8l9-9c1.1-1.1,0.3-3.1-1.3-3.1l-18.2,0c-1.6,0-2.4,2-1.3,3.1l9.2,9
		C164.7,17.6,165.8,17.5,166.5,16.8z"/>
	
		<linearGradient id="SVGID_2_" gradientUnits="userSpaceOnUse" x1="315.0221" y1="16.2389" x2="328.6562" y2="16.2389" gradientTransform="matrix(1 -2.579500e-03 -2.579500e-03 -1 0.1905 104.1692)">
		<stop  offset="0" style="stop-color:#00F4BC"/>
		<stop  offset="1" style="stop-color:#329696"/>
	</linearGradient>
	<circle class="st2" cx="322" cy="87.1" r="6.8"/>
</g>
</svg>
